<?xml version="1.0" encoding="UTF-8"?>
<svg width="48px" height="36px" viewBox="0 0 48 36" version="1.1" xmlns="http://www.w3.org/2000/svg" xmlns:xlink="http://www.w3.org/1999/xlink">
    <!-- Generator: Sketch 52.6 (67491) - http://www.bohemiancoding.com/sketch -->
    <title>Group</title>
    <desc>Created with Sketch.</desc>
    <g id="Welcome" stroke="none" stroke-width="1" fill="none" fill-rule="evenodd">
        <g id="Mobile-Portrait" transform="translate(-21.000000, -21.000000)" stroke="#00A672">
            <g id="Group" transform="translate(19.000000, 20.000000)">
                <g id="Group-2-Copy">
                    <path d="M15.8695616,16.9325842 L30.3128367,2.33145917 C31.2449874,1.38912099 32.7645609,1.38086244 33.7068991,2.31301318 C33.7130811,2.31912838 33.7192299,2.32527714 33.7253451,2.33145917 L48.1686201,16.9325842 C49.0936145,17.8676878 49.0936145,19.373097 48.1686201,20.3082006 L33.7253451,34.9093257 C32.7931944,35.8516639 31.2736208,35.8599224 30.3312827,34.9277717 C30.3251006,34.9216565 30.3189519,34.9155077 30.3128367,34.9093257 L15.8695616,20.3082006 C14.9445673,19.373097 14.9445673,17.8676878 15.8695616,16.9325842 Z M34.4236,15.5094929 L38.2378,13.4034929 C37.9101984,12.9042904 37.5397021,12.4284952 37.1263,11.9760929 C36.7128979,11.5236906 36.209803,11.1336945 35.617,10.8060929 C35.024197,10.4784913 34.2988043,10.2522935 33.4408,10.1274929 L33.5812,7.4598929 L29.9776,7.4598929 L30.118,10.1274929 C29.1351951,10.2990938 28.2850036,10.6071907 27.5674,11.0517929 C26.8497964,11.4963951 26.292102,12.0345897 25.8943,12.6663929 C25.496498,13.2981961 25.2976,13.9650894 25.2976,14.6670929 C25.2976,15.493897 25.4574984,16.2075899 25.7773,16.8081929 C26.0971016,17.4087959 26.5026975,17.9196908 26.9941,18.3408929 C27.4855025,18.762095 27.9924974,19.1091915 28.5151,19.3821929 C29.0377026,19.6551943 29.501798,19.8696921 29.9074,20.0256929 C30.8746048,20.4156948 31.6350972,20.7237918 32.1889,20.9499929 C32.7427028,21.176194 33.0196,21.4920909 33.0196,21.8976929 C33.0196,22.2408946 32.9065011,22.4943921 32.6803,22.6581929 C32.4540989,22.8219937 32.0680027,22.9038929 31.522,22.9038929 C30.7419961,22.9038929 30.0673028,22.7049949 29.4979,22.3071929 C28.9284972,21.9093909 28.339603,21.2658973 27.7312,20.3766929 L24.268,22.9038929 C24.5644015,23.4810958 25.0050971,24.0348902 25.5901,24.5652929 C26.1751029,25.0956955 26.8536961,25.551991 27.6259,25.9341929 C28.3981039,26.3163948 29.2287956,26.5776922 30.118,26.7180929 L29.9776,29.2218929 L33.5578,29.2218929 L33.4174,26.6946929 C34.9462076,26.4606917 36.1707954,25.9458969 37.0912,25.1502929 C38.0116046,24.3546889 38.4718,23.2782997 38.4718,21.9210929 C38.4718,20.548286 38.0896038,19.4445971 37.3252,18.6099929 C36.5607962,17.7753887 35.5468063,17.1318952 34.2832,16.6794929 C33.6279967,16.4298916 33.0157028,16.2192938 32.4463,16.0476929 C31.8768972,15.876092 31.4206017,15.681094 31.0774,15.4626929 C30.7341983,15.2442918 30.5626,14.9478948 30.5626,14.5734929 C30.5626,14.3238916 30.6678989,14.085994 30.8785,13.8597929 C31.0891011,13.6335918 31.4283977,13.5204929 31.8964,13.5204929 C32.3332022,13.5204929 32.7777977,13.6803913 33.2302,14.0001929 C33.6826023,14.3199945 34.0803983,14.8230895 34.4236,15.5094929 Z" id="Combined-Shape" stroke-width="1.2" fill="#00A672"></path>
                    <path d="M16.2754136,29.6289481 L16.6595062,29.5691958 L16.4858586,22.9082636 C16.4349385,20.955024 17.737705,19.2246602 19.6288969,18.7336093 L29.7733738,16.0995802 L29.7735825,16.0977246 L30.4328273,14.8749365 L30.4711793,7.81816349 C30.4711911,7.81490267 30.4711911,7.81490267 30.4711793,7.81164185 C30.4693784,7.48027589 30.1992933,7.21311063 29.8679273,7.21491153 L8.72715641,7.32980702 C8.39833443,7.3315941 8.13221317,7.59771536 8.13042609,7.92653734 L8.0155306,29.0673083 C8.01551879,29.0705691 8.01551879,29.0705691 8.0155306,29.0738299 C8.0173315,29.4051959 8.2874166,29.6723611 8.61878256,29.6705602 L16.2754136,29.6289481 Z" id="Rectangle-Copy-2" stroke-opacity="0.417544158" stroke-width="3.6" transform="translate(19.243355, 18.442736) rotate(-45.000000) translate(-19.243355, -18.442736) "></path>
                </g>
            </g>
        </g>
    </g>
</svg>