<?xml version="1.0" encoding="UTF-8"?>
<svg width="26px" height="26px" viewBox="0 0 26 26" version="1.1" xmlns="http://www.w3.org/2000/svg" xmlns:xlink="http://www.w3.org/1999/xlink">
    <!-- Generator: Sketch 52.6 (67491) - http://www.bohemiancoding.com/sketch -->
    <title>Shape</title>
    <desc>Created with Sketch.</desc>
    <g id="Welcome" stroke="none" stroke-width="1" fill="none" fill-rule="evenodd">
        <g id="Mobile-Portrait" transform="translate(-13.000000, -217.000000)" fill="#00D54B">
            <g id="Group-3" transform="translate(13.000000, 217.000000)">
                <path d="M13,26 C5.82029825,26 0,20.1797017 0,13 C0,5.82029825 5.82029825,0 13,0 C20.1797017,0 26,5.82029825 26,13 C26,20.1797017 20.1797017,26 13,26 Z M10.615,10.687 L12.893,9.446 C12.6209986,8.85666372 12.2583356,8.34666882 11.805,7.916 C11.3516644,7.48533118 10.7680035,7.19066746 10.054,7.032 L10.428,5.094 L8.33699998,5.094 L8.09899998,6.998 C7.47566353,7.10000051 6.90050261,7.29549855 6.37349998,7.5845 C5.84649734,7.87350144 5.41016837,8.23616448 5.06449998,8.6725 C4.71883158,9.10883551 4.50633371,9.59899728 4.42699998,10.143 C4.34766625,10.81167 4.43833201,11.3896642 4.69899998,11.877 C4.95966795,12.3643358 5.30816446,12.7694984 5.74449998,13.0925 C6.18083549,13.4155016 6.61999777,13.6733324 7.06199998,13.866 C7.41333507,14.0133341 7.75616497,14.1663325 8.09049998,14.325 C8.42483498,14.4836675 8.69116565,14.6678323 8.88949998,14.8775 C9.0878343,15.0871677 9.15866693,15.3563317 9.10199998,15.685 C9.04533303,16.0590019 8.86683481,16.347999 8.56649998,16.552 C8.26616514,16.756001 7.9006688,16.858 7.46999998,16.858 C6.84666353,16.858 6.35083515,16.6568353 5.98249998,16.2545 C5.6141648,15.8521647 5.28833473,15.3450031 5.00499998,14.733 L2.84599998,16.144 C3.11800134,16.8580036 3.5486637,17.4813307 4.13799998,18.014 C4.72733626,18.5466693 5.42432929,18.8979992 6.22899998,19.068 L5.88899998,20.904 L7.96299998,20.904 L8.18399998,19.102 C9.20400508,18.9659993 10.076663,18.6033363 10.802,18.014 C11.5273369,17.4246637 11.9579993,16.6426715 12.094,15.668 C12.2073339,14.7499954 12.0231691,13.9850031 11.5415,13.373 C11.0598309,12.7609969 10.4280039,12.2963349 9.64599998,11.979 C9.29466489,11.8316659 8.92633524,11.6843341 8.54099998,11.537 C8.15566472,11.3896659 7.84400117,11.2083344 7.60599998,10.993 C7.36799879,10.7776656 7.28299964,10.4943351 7.35099998,10.143 C7.40766693,9.82566508 7.57483192,9.56500102 7.85249998,9.361 C8.13016803,9.15699898 8.46733133,9.06066661 8.86399998,9.072 C9.31733558,9.08333339 9.67716531,9.24766508 9.94349998,9.565 C10.2098346,9.88233492 10.4336657,10.2563312 10.615,10.687 Z M19.949,10.687 L22.227,9.446 C21.9549986,8.85666372 21.5923356,8.34666882 21.139,7.916 C20.6856644,7.48533118 20.1020036,7.19066746 19.388,7.032 L19.762,5.094 L17.671,5.094 L17.433,6.998 C16.8096636,7.10000051 16.2345026,7.29549855 15.7075,7.5845 C15.1804974,7.87350144 14.7441684,8.23616448 14.3985,8.6725 C14.0528316,9.10883551 13.8403337,9.59899728 13.761,10.143 C13.6816663,10.81167 13.772332,11.3896642 14.033,11.877 C14.293668,12.3643358 14.6421645,12.7694984 15.0785,13.0925 C15.5148355,13.4155016 15.9539978,13.6733324 16.396,13.866 C16.7473351,14.0133341 17.090165,14.1663325 17.4245,14.325 C17.758835,14.4836675 18.0251657,14.6678323 18.2235,14.8775 C18.4218343,15.0871677 18.492667,15.3563317 18.436,15.685 C18.379333,16.0590019 18.2008348,16.347999 17.9005,16.552 C17.6001652,16.756001 17.2346688,16.858 16.804,16.858 C16.1806635,16.858 15.6848352,16.6568353 15.3165,16.2545 C14.9481648,15.8521647 14.6223347,15.3450031 14.339,14.733 L12.18,16.144 C12.4520014,16.8580036 12.8826637,17.4813307 13.472,18.014 C14.0613363,18.5466693 14.7583293,18.8979992 15.563,19.068 L15.223,20.904 L17.297,20.904 L17.518,19.102 C18.5380051,18.9659993 19.410663,18.6033363 20.136,18.014 C20.861337,17.4246637 21.2919993,16.6426715 21.428,15.668 C21.5413339,14.7499954 21.3571691,13.9850031 20.8755,13.373 C20.3938309,12.7609969 19.7620039,12.2963349 18.98,11.979 C18.6286649,11.8316659 18.2603353,11.6843341 17.875,11.537 C17.4896647,11.3896659 17.1780012,11.2083344 16.94,10.993 C16.7019988,10.7776656 16.6169997,10.4943351 16.685,10.143 C16.7416669,9.82566508 16.9088319,9.56500102 17.1865,9.361 C17.4641681,9.15699898 17.8013313,9.06066661 18.198,9.072 C18.6513356,9.08333339 19.0111653,9.24766508 19.2775,9.565 C19.5438347,9.88233492 19.7676658,10.2563312 19.949,10.687 Z" id="Shape"></path>
            </g>
        </g>
    </g>
</svg>