<?xml version="1.0" encoding="UTF-8"?>
<svg width="1289" height="245" viewBox="0 0 1289 245" version="1.1" xmlns="http://www.w3.org/2000/svg" xmlns:xlink="http://www.w3.org/1999/xlink">
    <g id="Welcome" stroke="none" stroke-width="1" fill="none" fill-rule="evenodd">
        <g id="Mobile-Portrait" transform="translate(-94.000000, -21.000000)">
            <g id="logo" transform="translate(95.000000, 22.000000)">
                <g>
                    <path d="M21.3010844,7.9502325 L12.7145718,16.6148243 C11.8695801,17.4674997 11.8695801,18.840209 12.7145718,19.6928844 L21.639607,28.6990771 L17.1530044,33.346759 C16.3128304,34.2170972 14.9249027,34.2427869 14.0529812,33.4041385 C14.0334661,33.3853681 14.0143014,33.3662382 13.9954969,33.3467585 L1.1291874,20.0185112 C0.310960216,19.1709072 0.310960412,17.8291009 1.12918785,16.9814972 L13.9955133,3.65324104 C14.8356874,2.78290283 16.223615,2.75721314 17.0955365,3.59586151 C17.1150516,3.61463189 17.1342164,3.63376184 17.1530209,3.6532415 L21.3010844,7.9502325 Z" id="Path" stroke="#00A672" stroke-width="2.9" opacity="0.9" stroke-linecap="round"></path>
                    <path d="M10.6754491,15.3210497 L25.1187241,0.719924628 C26.0508749,-0.222413551 27.5704484,-0.230672103 28.5127866,0.701478636 C28.5189686,0.707593838 28.5251173,0.713742593 28.5312325,0.719924628 L42.9745076,15.3210497 C43.899502,16.2561533 43.899502,17.7615625 42.9745076,18.6966661 L28.5312325,33.2977911 C27.5990818,34.2401293 26.0795083,34.2483879 25.1371701,33.3162371 C25.1309881,33.3101219 25.1248393,33.3039732 25.1187241,33.2977911 L10.6754491,18.6966661 C9.7504547,17.7615625 9.7504547,16.2561533 10.6754491,15.3210497 Z M29.6236,13.9084 L33.4378,11.8024 C33.1101984,11.3031975 32.7397021,10.8274023 32.3263,10.375 C31.9128979,9.92259774 31.409803,9.53260164 30.817,9.205 C30.224197,8.87739836 29.4988043,8.65120062 28.6408,8.5264 L28.7812,5.8588 L25.1776,5.8588 L25.318,8.5264 C24.3351951,8.69800086 23.4850036,9.00609778 22.7674,9.4507 C22.0497964,9.89530222 21.492102,10.4334968 21.0943,11.0653 C20.696498,11.6971032 20.4976,12.3639965 20.4976,13.066 C20.4976,13.8928041 20.6574984,14.606497 20.9773,15.2071 C21.2971016,15.807703 21.7026975,16.3185979 22.1941,16.7398 C22.6855025,17.1610021 23.1924974,17.5080986 23.7151,17.7811 C24.2377026,18.0541014 24.701798,18.2685992 25.1074,18.4246 C26.0746048,18.814602 26.8350972,19.1226989 27.3889,19.3489 C27.9427028,19.5751011 28.2196,19.890998 28.2196,20.2966 C28.2196,20.6398017 28.1065011,20.8932992 27.8803,21.0571 C27.6540989,21.2209008 27.2680027,21.3028 26.722,21.3028 C25.9419961,21.3028 25.2673028,21.103902 24.6979,20.7061 C24.1284972,20.308298 23.539603,19.6648044 22.9312,18.7756 L19.468,21.3028 C19.7644015,21.8800029 20.2050971,22.4337973 20.7901,22.9642 C21.3751029,23.4946027 22.0536961,23.9508981 22.8259,24.3331 C23.5981039,24.7153019 24.4287956,24.9765993 25.318,25.117 L25.1776,27.6208 L28.7578,27.6208 L28.6174,25.0936 C30.1462076,24.8595988 31.3707954,24.344804 32.2912,23.5492 C33.2116046,22.753596 33.6718,21.6772068 33.6718,20.32 C33.6718,18.9471931 33.2896038,17.8435042 32.5252,17.0089 C31.7607962,16.1742958 30.7468063,15.5308023 29.4832,15.0784 C28.8279967,14.8287988 28.2157028,14.6182009 27.6463,14.4466 C27.0768972,14.2749991 26.6206017,14.0800011 26.2774,13.8616 C25.9341983,13.6431989 25.7626,13.3468019 25.7626,12.9724 C25.7626,12.7227988 25.8678989,12.4849011 26.0785,12.2587 C26.2891011,12.0324989 26.6283977,11.9194 27.0964,11.9194 C27.5332022,11.9194 27.9777977,12.0792984 28.4302,12.3991 C28.8826023,12.7189016 29.2803983,13.2219966 29.6236,13.9084 Z" id="Combined-Shape" stroke="#00A672" stroke-width="1.2" fill="#00A672"></path>
                </g>
                <text id="Equipment-Loans" font-family="Jost" font-size="18" font-weight="500" letter-spacing="-0.5" fill="var(--body-color)">
                    <tspan x="48.2178571" y="22">Equipment Loans</tspan>

                </text>
            </g>
        </g>
    </g>
</svg>