<?xml version="1.0" encoding="UTF-8"?>
<svg width="179px" height="26px" viewBox="0 0 179 26" version="1.1" xmlns="http://www.w3.org/2000/svg" xmlns:xlink="http://www.w3.org/1999/xlink">
    <!-- Generator: Sketch 52.6 (67491) - http://www.bohemiancoding.com/sketch -->
    <title>Group 15</title>
    <desc>Created with Sketch.</desc>
    <g id="Welcome" stroke="none" stroke-width="1" fill="none" fill-rule="evenodd">
        <g id="Mobile-Portrait" transform="translate(-13.000000, -285.000000)">
            <g id="Group-15" transform="translate(13.000000, 285.000000)">
                <path d="M13,26 C5.82029825,26 0,20.1797017 0,13 C0,5.82029825 5.82029825,0 13,0 C20.1797017,0 26,5.82029825 26,13 C26,20.1797017 20.1797017,26 13,26 Z M10.615,10.687 L12.893,9.446 C12.6209986,8.85666372 12.2583356,8.34666882 11.805,7.916 C11.3516644,7.48533118 10.7680035,7.19066746 10.054,7.032 L10.428,5.094 L8.33699998,5.094 L8.09899998,6.998 C7.47566353,7.10000051 6.90050261,7.29549855 6.37349998,7.5845 C5.84649734,7.87350145 5.41016837,8.23616449 5.06449998,8.6725 C4.71883158,9.10883551 4.50633371,9.59899728 4.42699998,10.143 C4.34766625,10.81167 4.43833201,11.3896642 4.69899998,11.877 C4.95966795,12.3643358 5.30816446,12.7694984 5.74449998,13.0925 C6.18083549,13.4155016 6.61999777,13.6733324 7.06199998,13.866 C7.41333507,14.0133341 7.75616497,14.1663325 8.09049998,14.325 C8.42483498,14.4836675 8.69116565,14.6678323 8.88949998,14.8775 C9.0878343,15.0871677 9.15866693,15.3563317 9.10199998,15.685 C9.04533303,16.0590019 8.86683481,16.347999 8.56649998,16.552 C8.26616514,16.756001 7.9006688,16.858 7.46999998,16.858 C6.84666353,16.858 6.35083515,16.6568353 5.98249998,16.2545 C5.6141648,15.8521647 5.28833473,15.3450031 5.00499998,14.733 L2.84599998,16.144 C3.11800134,16.8580036 3.5486637,17.4813307 4.13799998,18.014 C4.72733626,18.5466693 5.42432929,18.8979992 6.22899998,19.068 L5.88899998,20.904 L7.96299998,20.904 L8.18399998,19.102 C9.20400508,18.9659993 10.076663,18.6033363 10.802,18.014 C11.5273369,17.4246637 11.9579993,16.6426715 12.094,15.668 C12.2073339,14.7499954 12.0231691,13.9850031 11.5415,13.373 C11.0598309,12.7609969 10.4280039,12.2963349 9.64599998,11.979 C9.29466489,11.8316659 8.92633524,11.6843341 8.54099998,11.537 C8.15566472,11.3896659 7.84400117,11.2083344 7.60599998,10.993 C7.36799879,10.7776656 7.28299964,10.4943351 7.35099998,10.143 C7.40766693,9.82566508 7.57483192,9.56500102 7.85249998,9.361 C8.13016803,9.15699898 8.46733133,9.06066661 8.86399998,9.072 C9.31733558,9.08333339 9.67716531,9.24766508 9.94349998,9.565 C10.2098346,9.88233492 10.4336657,10.2563312 10.615,10.687 Z M19.949,10.687 L22.227,9.446 C21.9549986,8.85666372 21.5923356,8.34666882 21.139,7.916 C20.6856644,7.48533118 20.1020036,7.19066746 19.388,7.032 L19.762,5.094 L17.671,5.094 L17.433,6.998 C16.8096636,7.10000051 16.2345026,7.29549855 15.7075,7.5845 C15.1804974,7.87350145 14.7441684,8.23616449 14.3985,8.6725 C14.0528316,9.10883551 13.8403337,9.59899728 13.761,10.143 C13.6816663,10.81167 13.772332,11.3896642 14.033,11.877 C14.293668,12.3643358 14.6421645,12.7694984 15.0785,13.0925 C15.5148355,13.4155016 15.9539978,13.6733324 16.396,13.866 C16.7473351,14.0133341 17.090165,14.1663325 17.4245,14.325 C17.758835,14.4836675 18.0251657,14.6678323 18.2235,14.8775 C18.4218343,15.0871677 18.492667,15.3563317 18.436,15.685 C18.379333,16.0590019 18.2008348,16.347999 17.9005,16.552 C17.6001652,16.756001 17.2346688,16.858 16.804,16.858 C16.1806635,16.858 15.6848352,16.6568353 15.3165,16.2545 C14.9481648,15.8521647 14.6223347,15.3450031 14.339,14.733 L12.18,16.144 C12.4520014,16.8580036 12.8826637,17.4813307 13.472,18.014 C14.0613363,18.5466693 14.7583293,18.8979992 15.563,19.068 L15.223,20.904 L17.297,20.904 L17.518,19.102 C18.5380051,18.9659993 19.410663,18.6033363 20.136,18.014 C20.861337,17.4246637 21.2919993,16.6426715 21.428,15.668 C21.5413339,14.7499954 21.3571691,13.9850031 20.8755,13.373 C20.3938309,12.7609969 19.7620039,12.2963349 18.98,11.979 C18.6286649,11.8316659 18.2603353,11.6843341 17.875,11.537 C17.4896647,11.3896659 17.1780012,11.2083344 16.94,10.993 C16.7019988,10.7776656 16.6169997,10.4943351 16.685,10.143 C16.7416669,9.82566508 16.9088319,9.56500102 17.1865,9.361 C17.4641681,9.15699898 17.8013313,9.06066661 18.198,9.072 C18.6513356,9.08333339 19.0111653,9.24766508 19.2775,9.565 C19.5438347,9.88233492 19.7676658,10.2563312 19.949,10.687 Z" id="Shape" fill="#00D54B"></path>
                <path d="M33.242,6.266 L41.925,6.266 L41.45,8.926 L35.883,8.926 L35.465,11.282 L40.69,11.282 L40.234,13.885 L35.028,13.885 L34.496,16.906 L40.101,16.906 L39.626,19.566 L31,19.566 L33.242,6.266 Z M42.058,15.196 C42.1846673,14.2966622 42.4728311,13.4955035 42.9225,12.7925 C43.3721689,12.0894965 43.9358299,11.5321687 44.6135,11.1205 C45.2911701,10.7088313 46.0226627,10.5093333 46.808,10.522 C47.5046702,10.522 48.0683312,10.6961649 48.499,11.0445 C48.9296688,11.3928351 49.2463323,11.8393306 49.449,12.384 L49.715,10.826 L52.603,10.826 L50.38,23.746 L47.511,23.746 L48.442,18.312 C48.0746648,18.780669 47.6345026,19.1574986 47.1215,19.4425 C46.6084974,19.7275014 46.0353365,19.87 45.402,19.87 C44.6166627,19.87 43.954836,19.6578355 43.4165,19.2335 C42.878164,18.8091645 42.4918345,18.2423369 42.2575,17.533 C42.0231655,16.8236631 41.9566662,16.0446709 42.058,15.196 Z M45.041,15.196 C44.9523329,15.7660028 45.0504986,16.2568313 45.3355,16.6685 C45.6205014,17.0801687 46.0479972,17.2923333 46.618,17.305 C47.1246692,17.3176667 47.6059977,17.1403352 48.062,16.773 C48.5180023,16.4056648 48.8093327,15.9370028 48.936,15.367 L48.993,15.101 C49.0563336,14.5436639 48.9486681,14.0718353 48.67,13.6855 C48.3913319,13.2991647 47.9986692,13.0996667 47.492,13.087 C47.0993314,13.0743333 46.7288351,13.1598324 46.3805,13.3435 C46.0321649,13.5271676 45.7376679,13.7804984 45.497,14.1035 C45.2563321,14.4265016 45.1043337,14.7906646 45.041,15.196 Z M56.707,16.146 C56.6689998,16.5513354 56.6974995,16.9091651 56.7925,17.2195 C56.8875005,17.5298349 57.1566645,17.6976665 57.6,17.723 C58.0433356,17.7483335 58.4169985,17.6058349 58.721,17.2955 C59.0250015,16.9851651 59.2339994,16.6273354 59.348,16.222 L60.279,10.826 L63.148,10.826 L61.647,19.566 L58.778,19.566 L58.987,18.369 C58.6829985,18.7870021 58.3093356,19.1226654 57.866,19.376 C57.4226644,19.6293346 56.897003,19.756 56.289,19.756 C55.2503281,19.756 54.531502,19.4456698 54.1325,18.825 C53.733498,18.2043302 53.5909994,17.4126715 53.705,16.45 L54.674,10.826 L57.657,10.826 L56.707,16.146 Z M65.599,7.558 C65.599,7.10199772 65.763665,6.72833479 66.093,6.437 C66.422335,6.14566521 66.821331,6 67.29,6 C67.758669,6 68.157665,6.14566521 68.487,6.437 C68.816335,6.72833479 68.981,7.10199772 68.981,7.558 C68.981,8.01400228 68.816335,8.38766521 68.487,8.679 C68.157665,8.97033479 67.758669,9.116 67.29,9.116 C66.821331,9.116 66.422335,8.97033479 66.093,8.679 C65.763665,8.38766521 65.599,8.01400228 65.599,7.558 Z M65.333,10.826 L68.126,10.826 L66.625,19.566 L63.851,19.566 L65.333,10.826 Z M70.957,23.746 L68.069,23.746 L70.292,10.826 L73.161,10.826 L72.952,12.08 C73.3193352,11.611331 73.7563308,11.2345014 74.263,10.9495 C74.7696692,10.6644986 75.3396635,10.522 75.973,10.522 C76.7583373,10.522 77.420164,10.7341645 77.9585,11.1585 C78.496836,11.5828355 78.8894988,12.1464965 79.1365,12.8495 C79.3835012,13.5525035 79.4500006,14.3346624 79.336,15.196 C79.2219994,16.0826711 78.9370023,16.8806631 78.481,17.59 C78.0249977,18.2993369 77.4581701,18.8566646 76.7805,19.262 C76.1028299,19.6673354 75.3713373,19.87 74.586,19.87 C73.8766631,19.87 73.3066688,19.6958351 72.876,19.3475 C72.4453312,18.9991649 72.1350009,18.5463361 71.945,17.989 L70.957,23.746 Z M76.353,15.196 C76.4416671,14.6259971 76.3435014,14.1351687 76.0585,13.7235 C75.7734986,13.3118313 75.3460029,13.0996667 74.776,13.087 C74.4213316,13.0743333 74.0761683,13.1598324 73.7405,13.3435 C73.4048317,13.5271676 73.1166679,13.7773317 72.876,14.094 C72.6353321,14.4106682 72.4833337,14.7779979 72.42,15.196 C72.3313329,15.7786696 72.4263319,16.269498 72.705,16.6685 C72.9836681,17.067502 73.3826641,17.2796665 73.902,17.305 C74.2946686,17.3176667 74.6651649,17.2321676 75.0135,17.0485 C75.3618351,16.8648324 75.6563321,16.608335 75.897,16.279 C76.1376679,15.949665 76.2896663,15.5886686 76.353,15.196 Z M86.157,14.246 C86.1950002,13.8659981 86.1823336,13.5145016 86.119,13.1915 C86.0556664,12.8684984 85.8213354,12.6943335 85.416,12.669 C85.0486648,12.6309998 84.735168,12.7481653 84.4755,13.0205 C84.215832,13.2928347 84.0290006,13.6126648 83.915,13.98 L82.946,19.566 L80.172,19.566 L81.692,10.826 L84.447,10.826 L84.238,11.985 C84.5420015,11.5923314 84.9061645,11.2693346 85.3305,11.016 C85.7548355,10.7626654 86.2519971,10.636 86.822,10.636 C87.48067,10.636 87.9809983,10.7689987 88.323,11.035 C88.6650017,11.3010013 88.8866662,11.668331 88.988,12.137 C89.3426684,11.6936644 89.7701642,11.3326681 90.2705,11.054 C90.7708358,10.7753319 91.3313302,10.636 91.952,10.636 C92.6360034,10.636 93.1489983,10.7848318 93.491,11.0825 C93.8330017,11.3801682 94.0483329,11.7759975 94.137,12.27 C94.2256671,12.7640025 94.2320004,13.3213302 94.156,13.942 L93.206,19.566 L90.318,19.566 L91.268,14.246 C91.3060002,13.8659981 91.2933337,13.5145016 91.23,13.1915 C91.1666663,12.8684984 90.9323354,12.6943335 90.527,12.669 C90.1216646,12.6309998 89.7828347,12.7798317 89.5105,13.1155 C89.2381653,13.4511683 89.0576671,13.8216646 88.969,14.227 L88.95,14.227 L88.057,19.566 L85.188,19.566 L86.157,14.246 Z M104.815,17.191 C104.270331,17.9510038 103.602171,18.5716643 102.8105,19.053 C102.018829,19.5343357 101.053006,19.7686667 99.913,19.756 C98.9376618,19.7433333 98.1143367,19.5406686 97.443,19.148 C96.7716633,18.7553314 96.2808349,18.2138368 95.9705,17.5235 C95.6601651,16.8331632 95.5619994,16.0573376 95.676,15.196 C95.7013335,15.0313325 95.7298332,14.8730008 95.7615,14.721 C95.7931668,14.5689992 95.8343331,14.4170008 95.885,14.265 C96.2270017,13.1756612 96.8571621,12.2985033 97.7755,11.6335 C98.6938379,10.9684967 99.8053268,10.636 101.11,10.636 C102.060005,10.636 102.851664,10.8228315 103.485,11.1965 C104.118336,11.5701685 104.574332,12.0894967 104.853,12.7545 C105.131668,13.4195033 105.220334,14.1889956 105.119,15.063 C105.093667,15.2910011 105.055667,15.5443319 105.005,15.823 L98.507,15.823 C98.5196667,16.3550027 98.6494988,16.785665 98.8965,17.115 C99.1435012,17.444335 99.5203308,17.6216665 100.027,17.647 C100.508336,17.6596667 100.938998,17.5583344 101.319,17.343 C101.699002,17.1276656 102.021999,16.8616682 102.288,16.545 L104.815,17.191 Z M100.882,12.574 C100.375331,12.5613333 99.9446684,12.7164984 99.59,13.0395 C99.2353316,13.3625016 98.9756675,13.758331 98.811,14.227 L102.231,14.227 C102.231,13.7836645 102.129668,13.4005016 101.927,13.0775 C101.724332,12.7544984 101.376002,12.5866667 100.882,12.574 Z M112.32,14.246 C112.370667,13.8406646 112.345334,13.4828349 112.244,13.1725 C112.142666,12.8621651 111.870336,12.6943335 111.427,12.669 C110.983664,12.6436665 110.610002,12.7861651 110.306,13.0965 C110.001998,13.4068349 109.793001,13.7646646 109.679,14.17 L108.748,19.566 L105.86,19.566 L107.38,10.826 L110.249,10.826 L110.04,12.004 C110.344002,11.5986646 110.717664,11.2693346 111.161,11.016 C111.604336,10.7626654 112.129997,10.636 112.738,10.636 C113.789339,10.636 114.517665,10.9494969 114.923,11.5765 C115.328335,12.2035031 115.461334,12.9919953 115.322,13.942 L114.353,19.566 L111.37,19.566 L112.32,14.246 Z M116.975,10.826 L118.457,10.826 L118.97,7.786 L121.725,7.786 L121.193,10.826 L122.732,10.826 L122.295,13.22 L120.794,13.22 L119.692,19.566 L116.956,19.566 L118.039,13.22 L116.538,13.22 L116.975,10.826 Z M130.579,6.266 L133.771,6.266 L131.966,16.773 L137.153,16.773 L136.678,19.566 L128.299,19.566 L130.579,6.266 Z M138.141,15.196 C138.255001,14.2966622 138.571664,13.5050034 139.091,12.821 C139.610336,12.1369966 140.265829,11.6018353 141.0575,11.2155 C141.849171,10.8291647 142.707329,10.636 143.632,10.636 C144.544005,10.636 145.341997,10.8323314 146.026,11.225 C146.710003,11.6176686 147.222998,12.1591632 147.565,12.8495 C147.907002,13.5398368 148.021001,14.3219956 147.907,15.196 C147.792999,16.0826711 147.473169,16.8711632 146.9475,17.5615 C146.421831,18.2518368 145.763171,18.7901647 144.9715,19.1765 C144.179829,19.5628353 143.321671,19.756 142.397,19.756 C141.497662,19.756 140.706003,19.556502 140.022,19.1575 C139.337997,18.758498 138.825002,18.2170034 138.483,17.533 C138.140998,16.8489966 138.026999,16.0700044 138.141,15.196 Z M141.067,15.196 C140.978333,15.7660028 141.073332,16.2663312 141.352,16.697 C141.630668,17.1276688 142.054997,17.3493333 142.625,17.362 C143.017669,17.362 143.378665,17.2670009 143.708,17.077 C144.037335,16.886999 144.315999,16.6241683 144.544,16.2885 C144.772001,15.9528317 144.917666,15.5886686 144.981,15.196 C145.069667,14.6259971 144.974668,14.1256688 144.696,13.695 C144.417332,13.2643312 143.993003,13.0426667 143.423,13.03 C143.042998,13.0173333 142.685168,13.1091657 142.3495,13.3055 C142.013832,13.5018343 141.732001,13.764665 141.504,14.094 C141.275999,14.423335 141.130334,14.7906646 141.067,15.196 Z M148.876,15.196 C148.990001,14.3219956 149.274998,13.5398368 149.731,12.8495 C150.187002,12.1591632 150.75383,11.6176686 151.4315,11.225 C152.10917,10.8323314 152.834329,10.636 153.607,10.636 C154.278337,10.636 154.838831,10.800665 155.2885,11.13 C155.738169,11.459335 156.076999,11.8899973 156.305,12.422 L156.571,10.826 L159.421,10.826 L157.92,19.566 L155.089,19.566 L155.317,18.255 C154.924331,18.7110023 154.468336,19.0751653 153.949,19.3475 C153.429664,19.6198347 152.85967,19.756 152.239,19.756 C151.466329,19.756 150.807669,19.5501687 150.263,19.1385 C149.718331,18.7268313 149.325668,18.1758368 149.085,17.4855 C148.844332,16.7951632 148.774666,16.0320042 148.876,15.196 Z M151.859,15.196 C151.770333,15.7660028 151.862165,16.2758311 152.1345,16.7255 C152.406835,17.1751689 152.83433,17.4063333 153.417,17.419 C153.784335,17.419 154.135832,17.3208343 154.4715,17.1245 C154.807168,16.9281657 155.095332,16.6590017 155.336,16.317 C155.576668,15.9749983 155.728666,15.6013354 155.792,15.196 C155.880667,14.6259971 155.785668,14.1161689 155.507,13.6665 C155.228332,13.2168311 154.829336,12.9856667 154.31,12.973 C153.917331,12.9603333 153.546835,13.0553323 153.1985,13.258 C152.850165,13.4606677 152.558835,13.7329983 152.3245,14.075 C152.090165,14.4170017 151.935,14.7906646 151.859,15.196 Z M166.432,14.246 C166.482667,13.8406646 166.457334,13.4828349 166.356,13.1725 C166.254666,12.8621651 165.982336,12.6943335 165.539,12.669 C165.095664,12.6436665 164.722002,12.7861651 164.418,13.0965 C164.113998,13.4068349 163.905001,13.7646646 163.791,14.17 L162.86,19.566 L159.972,19.566 L161.492,10.826 L164.361,10.826 L164.152,12.004 C164.456002,11.5986646 164.829664,11.2693346 165.273,11.016 C165.716336,10.7626654 166.241997,10.636 166.85,10.636 C167.901339,10.636 168.629665,10.9494969 169.035,11.5765 C169.440335,12.2035031 169.573334,12.9919953 169.434,13.942 L168.465,19.566 L165.482,19.566 L166.432,14.246 Z M171.638,16.241 C172.144669,16.7223357 172.616498,17.1023319 173.0535,17.381 C173.490502,17.6596681 173.898998,17.7926667 174.279,17.78 C174.494334,17.78 174.703332,17.7166673 174.906,17.59 C175.108668,17.4633327 175.222667,17.2986677 175.248,17.096 C175.286,16.8553321 175.222667,16.6621674 175.058,16.5165 C174.893333,16.3708326 174.684335,16.2473338 174.431,16.146 C174.177665,16.0446662 173.930668,15.9496671 173.69,15.861 C173.297331,15.6963325 172.933168,15.5000011 172.5975,15.272 C172.261832,15.0439989 172.002168,14.7558351 171.8185,14.4075 C171.634832,14.0591649 171.574666,13.6316692 171.638,13.125 C171.714,12.5803306 171.919832,12.1243352 172.2555,11.757 C172.591168,11.3896648 173.012331,11.1110009 173.519,10.921 C174.025669,10.730999 174.57033,10.636 175.153,10.636 C175.862337,10.636 176.50833,10.7626654 177.091,11.016 C177.67367,11.2693346 178.205664,11.5796648 178.687,11.947 L177.433,13.809 C177.141665,13.4923317 176.806002,13.2200011 176.426,12.992 C176.045998,12.7639989 175.666002,12.65 175.286,12.65 C175.045332,12.65 174.817334,12.6974995 174.602,12.7925 C174.386666,12.8875005 174.266333,13.029999 174.241,13.22 C174.203,13.4480011 174.285332,13.6348326 174.488,13.7805 C174.690668,13.9261674 174.943998,14.0464995 175.248,14.1415 C175.552002,14.2365005 175.830665,14.3346662 176.084,14.436 C176.679336,14.6766679 177.182831,15.0059979 177.5945,15.424 C178.006169,15.8420021 178.174,16.4056631 178.098,17.115 C177.996666,18.0650047 177.61667,18.7711644 176.958,19.2335 C176.29933,19.6958356 175.482338,19.927 174.507,19.927 C173.632996,19.927 172.84767,19.7560017 172.151,19.414 C171.45433,19.0719983 170.821003,18.6413359 170.251,18.122 L171.638,16.241 Z" id="Equipment-Loans" fill="var(--body-color)"></path>
            </g>
        </g>
    </g>
</svg>